<svg xmlns="http://www.w3.org/2000/svg" width="720" height="520" viewBox="0 0 720 520">
  <defs>
    <style>
      text { font-family: system-ui, -apple-system, sans-serif; }
    </style>
  </defs>

  <!-- Background -->
  <rect width="720" height="520" fill="#ffffff" rx="12"/>

  <!-- Title -->
  <text x="16" y="36" font-size="18" font-weight="700" fill="#0f172a">Portfolio Overview</text>

  <!-- Kalshi Summary Card -->
  <rect x="16" y="56" width="340" height="90" rx="8" fill="#eff6ff" stroke="#bfdbfe"/>
  <text x="28" y="76" font-size="12" font-weight="600" fill="#3b82f6">KALSHI</text>
  <text x="28" y="108" font-size="22" font-weight="700" fill="#1e3a8a">$247.83</text>
  <text x="28" y="128" font-size="12" fill="#6b7280">4 positions · <tspan fill="#16a34a" font-weight="600">+$12.40</tspan> P&amp;L</text>

  <!-- Polymarket Summary Card -->
  <rect x="368" y="56" width="336" height="90" rx="8" fill="#fdf4ff" stroke="#e9d5ff"/>
  <text x="380" y="76" font-size="12" font-weight="600" fill="#7e22ce">POLYMARKET</text>
  <text x="380" y="104" font-size="13" font-weight="600" fill="#4c1d95">0x1a2b...9f4e</text>
  <text x="380" y="128" font-size="12" fill="#6b7280">3 positions · <tspan fill="#16a34a" font-weight="600">+$8.20</tspan></text>

  <!-- Tabs -->
  <rect x="16" y="160" width="280" height="36" rx="8" fill="#f1f5f9"/>
  <rect x="20" y="164" width="60" height="28" rx="6" fill="#1e293b"/>
  <text x="37" y="183" font-size="13" font-weight="500" fill="#ffffff">All</text>
  <text x="106" y="183" font-size="13" font-weight="500" fill="#64748b">Kalshi</text>
  <text x="178" y="183" font-size="13" font-weight="500" fill="#64748b">Polymarket</text>

  <!-- Table -->
  <rect x="16" y="210" width="688" height="280" rx="8" fill="#ffffff" stroke="#e2e8f0"/>

  <!-- Table Header -->
  <rect x="16" y="210" width="688" height="32" rx="8" fill="#f8fafc"/>
  <rect x="16" y="230" width="688" height="12" fill="#f8fafc"/>
  <text x="28" y="232" font-size="13" font-weight="600" fill="#64748b">Platform</text>
  <text x="160" y="232" font-size="13" font-weight="600" fill="#64748b">Market</text>
  <text x="500" y="232" font-size="13" font-weight="600" fill="#64748b" text-anchor="end">Position</text>
  <text x="680" y="232" font-size="13" font-weight="600" fill="#64748b" text-anchor="end">P&amp;L</text>

  <!-- Row 1 -->
  <line x1="16" y1="242" x2="704" y2="242" stroke="#e2e8f0"/>
  <rect x="28" y="252" width="50" height="18" rx="4" fill="#eff6ff"/>
  <text x="36" y="265" font-size="11" font-weight="600" fill="#1d4ed8">KALSHI</text>
  <text x="160" y="265" font-size="13" fill="#1e293b">KXNFL-CHIEFS-BILLS</text>
  <text x="160" y="280" font-size="11" fill="#94a3b8">Yes</text>
  <text x="500" y="265" font-size="13" fill="#1e293b" text-anchor="end">15</text>
  <text x="500" y="280" font-size="11" fill="#94a3b8" text-anchor="end">$7.05</text>
  <text x="680" y="265" font-size="13" font-weight="600" fill="#16a34a" text-anchor="end">+$3.20</text>

  <!-- Row 2 -->
  <rect x="16" y="290" width="688" height="40" fill="#f8fafc"/>
  <line x1="16" y1="290" x2="704" y2="290" stroke="#e2e8f0"/>
  <rect x="28" y="300" width="80" height="18" rx="4" fill="#fdf4ff"/>
  <text x="36" y="313" font-size="11" font-weight="600" fill="#7e22ce">POLYMARKET</text>
  <text x="160" y="313" font-size="13" fill="#1e293b">chiefs-vs-bills-winner</text>
  <text x="160" y="328" font-size="11" fill="#94a3b8">No</text>
  <text x="500" y="313" font-size="13" fill="#1e293b" text-anchor="end">15</text>
  <text x="500" y="328" font-size="11" fill="#94a3b8" text-anchor="end">$7.17</text>
  <text x="680" y="313" font-size="13" font-weight="600" fill="#16a34a" text-anchor="end">+$2.80</text>

  <!-- Row 3 -->
  <line x1="16" y1="330" x2="704" y2="330" stroke="#e2e8f0"/>
  <rect x="28" y="342" width="50" height="18" rx="4" fill="#eff6ff"/>
  <text x="36" y="355" font-size="11" font-weight="600" fill="#1d4ed8">KALSHI</text>
  <text x="160" y="355" font-size="13" fill="#1e293b">KXNBA-LAKERS-CELTICS</text>
  <text x="160" y="370" font-size="11" fill="#94a3b8">No</text>
  <text x="500" y="355" font-size="13" fill="#1e293b" text-anchor="end">8</text>
  <text x="500" y="370" font-size="11" fill="#94a3b8" text-anchor="end">$4.16</text>
  <text x="680" y="355" font-size="13" font-weight="600" fill="#dc2626" text-anchor="end">-$0.60</text>

  <!-- Row 4 -->
  <rect x="16" y="378" width="688" height="40" fill="#f8fafc"/>
  <line x1="16" y1="378" x2="704" y2="378" stroke="#e2e8f0"/>
  <rect x="28" y="388" width="80" height="18" rx="4" fill="#fdf4ff"/>
  <text x="36" y="401" font-size="11" font-weight="600" fill="#7e22ce">POLYMARKET</text>
  <text x="160" y="401" font-size="13" fill="#1e293b">lakers-vs-celtics-spread</text>
  <text x="160" y="416" font-size="11" fill="#94a3b8">Yes</text>
  <text x="500" y="401" font-size="13" fill="#1e293b" text-anchor="end">8</text>
  <text x="500" y="416" font-size="11" fill="#94a3b8" text-anchor="end">$3.59</text>
  <text x="680" y="401" font-size="13" font-weight="600" fill="#16a34a" text-anchor="end">+$1.20</text>

  <!-- Row 5 -->
  <line x1="16" y1="418" x2="704" y2="418" stroke="#e2e8f0"/>
  <rect x="28" y="430" width="50" height="18" rx="4" fill="#eff6ff"/>
  <text x="36" y="443" font-size="11" font-weight="600" fill="#1d4ed8">KALSHI</text>
  <text x="160" y="443" font-size="13" fill="#1e293b">KXNFL-EAGLES-COWBOYS</text>
  <text x="160" y="458" font-size="11" fill="#94a3b8">Yes</text>
  <text x="500" y="443" font-size="13" fill="#1e293b" text-anchor="end">20</text>
  <text x="500" y="458" font-size="11" fill="#94a3b8" text-anchor="end">$10.20</text>
  <text x="680" y="443" font-size="13" font-weight="600" fill="#16a34a" text-anchor="end">+$5.80</text>

  <!-- Footer -->
  <text x="692" y="504" font-size="11" fill="#94a3b8" text-anchor="end">7 total positions</text>
</svg>